<svg xmlns="http://www.w3.org/2000/svg" viewBox="0 0 1024 1024"><path fill="#b5a093" d="M416.14 291.19s3.26-30.83 23.52-54.21c26.58-30.69 69.86-36.87 69.86-36.87l2.73 8.18s51.8-20.46 46.35-12.28 24.41 4.66 39.54 5.46-2.73 13.64-2.73 13.64 42.26 8.18 39.54 13.64 1.36 10.91 1.36 10.91 68.17 34.1 51.81 36.83 15 20.46 15 20.46S729 340.6 722.2 337.87s13.63 24.55 17.72 34.1-9.54 8.18-9.54 8.18l19.09 28.65s20.45 80.47 13.63 84.56-6.82 6.82 0 16.37 12.27 36.83 6.82 34.1 14.64 42.71-5.46 66.84c-6.81 8.18-15 35.46-16.36 42.28s-4.58 33.85-8.18 28.64-16.36 9.55-17.72 21.83-12.27 27.28-12.27 21.82-17.72 8.18-17.72 8.18-10.91 25.92-15 9.55-19.09-47.74-19.09-47.74Z"/><path fill="#f7f5f2" d="M686.75 788c-8.18-5.45 2.72-8.19-1.37-27.28s-6.81-72.28-12.27-94.11-6.81-19.09-21.8-34.11-19.1-50.45-20.45-68.19-6.83-17.74-13.64-25.92c-1.94-2.33-2.45-3.79-2.16-4.67l.47-.06c1.75-.26 3.45-.55 5.09-.86.43.08.69.15.69.15v-.29c26.94-5.22 38-16.2 41.88-30.73 2.13-7.92 2.15-16.9 1.46-26.58a65.31 65.31 0 0 0-6-22.83 77 77 0 0 0-17.5-24.23c-6.93-6.63-11.82-9.9-15.52-10.9a55 55 0 0 0-8.35-8.57c-15-12.28-24.54-16.37-24.54-16.37s-6.81 0-4.09-8.19-24.54-15-24.54-15l-10.9-17.74s-10.92-9.56-9.55-16.37c1.23-6.12-24.94-3.46-30.36-2.84 1.12-1.15 3.49-4.75 8.54-14.9 9.55-19.09-24.54-24.55-24.54-24.55s2.74-12.27 10.92-19.09c6.27-5.21-14.63-1.64-24.78.32-6 3.71-15.11 9.28-17.14 9.95-3.07 1 2.05-9.2 2.05-9.2l-17.45 10.22 1-10.23s-10.23 5.11-15.34 9.2c-3 2.44-3.55-3.83-3.46-9.3-6.47 4.78-12.18 9.9-14.95 14-13.29 19.82-59.78 70.48-69.53 63.81-11.25-7.7-11 13 10.23 17.39s31.35 1.7 36.81 3.07 8.18 2.05 20.45 6.14 23.52 13.3 27.61 21.48a4.64 4.64 0 0 1 .5 2c9.9 7.18 12.85 17.51 11.47 28.53-19.62 2.7-44.07 2.73-57 16.49-15.34 16.37-30.68 30.69 8.18 55.24a51 51 0 0 0 6.83 3.63c-9.17 28.62-13.32 87.59-13.32 95.91 0 9.53 13.64 21.81 9.55 32.73s-17.73 61.38-12.27 79.1 19.08 54.57 16.36 66.84-12.49 14.73-30 23.18-8.11 13.73-8.11 13.73l9.55-1.37s4.09 4.09 2.73 8.18 21.81-9.54 21.81-9.54l-1.37 13.63 10.9-4.1s19.66-28.41 25.91-30 4.09-12.28 0-21.83 8.74-26.72 9.55-51.83 35.44-40.91 81.8-43.66S619.94 713 639 736.15 649.94 803 649.94 803l-12.27 19.09 15-4.09 6.83 1.37 6.81-6.83s16.36 15 20.45 17.74-4.09-24.56-4.09-24.56l24.54 16.37c2.71-19.09-12.28-28.65-20.46-34.09Z"/><path d="M385.08 330.64c8.3-7.4 16-15.4 24-23.12 4.46-4.32 13.07-9.3 13.87-16 1.26-10.56-9.8-7.43-13.68-1.2-4.57 7.36-7.66 14.69-13.35 21.64a116.71 116.71 0 0 1-20.53 19.57c-4.44 3.32-8.9 6.63-13.61 9.57-3 1.88-9.57 4.06-11.1 7.78-4.25 10.34 8.22 3.47 11.42.89 7.71-6.25 15.5-12.57 22.98-19.13Zm38.48 52.58c-2.63-1-15.38-.31-14-4.29 2.67-7.6 18.72 0 22.32 2.08 3.22 1.87 32.23 28.19 27 32.15-1.8 1.39-31.53-27.85-35.32-29.94Z" class="cls-3"/><path d="M344.86 370c3.57.59 24.3 2.45 11.41 6.47-8.11 2.53-22-2.37-26.56-9.42-4.45-6.89-4.08-21.51 5.46-24.41a7.91 7.91 0 0 1 6.5.79c2.41 1.39 4.1 8.69 4.13 8.7-2.43-1.18-3.66-5.76-7.17-5.05S334 354.32 334 357c.08 1.58 8.79 16.67 10.86 13Zm-32.28-53c.65.85 12.15 16.18 12.35 16.15-8.56 1.26-23.06-26.35-26.65-32.58a194.4 194.4 0 0 1-11-21.89c-1.3-3.13-6-11.58-5-15-1.13 3.9 10.9 20.15 13.2 24.39 5.35 9.84 10.63 19.77 17.1 28.93Zm-13.89 13.2c1.19 1 14.91 11.17 15.15 11-7.09 4.33-26.1-17-30-21.54a120.18 120.18 0 0 1-13-17.95c-1.81-3.07-8.08-11.9-6.91-15.84-1.09 3.66 13 19.15 15.22 22.13 5.85 7.88 12.07 15.73 19.54 22.2Zm-1.84 14.45c.69.21 16.26 5.45 15.41 6.21-4.4 3.95-28.25-7.33-33.61-9.19-5.7-2-11.39-4-17.14-5.8-2.17-.68-10.74-4.39-12.9-3.77 14.15-4.03 35.39 7.74 48.24 12.55Zm141.79-8.71c-8.78-5.13-7.26-12.44 1.72-18.71 9.99 9.38 8.27 22.02-1.72 18.71Zm-4.28-89c-1.31 2.18-7.81 15.38-12 12.79-3.63-2.23 10.24-20.54 12-22.86a106.38 106.38 0 0 1 20.51-20.48c1-.78 13.54-9.25 13.75-8.31.78 3.47-13.47 16.77-15.85 19.21-6.35 6.44-12.86 12.55-18.41 19.65Zm130.11-17.52c-2.3.77-13 3.17-12.15-1.72.49-2.88 9.95-3 12.52-3.86 6.27-2 12.2-5 18.63-6.61 1.38-.34 16-1.07 15.27-.19-2.22 2.63-12.07 5.48-15.22 6.73a107.16 107.16 0 0 1-19.05 5.65ZM615 265.14c-2.07.38-14.26 3.7-16 .62-2.59-4.65 16-5.89 17.79-6.13 9.48-1.29 19-1.44 28.39.71a50.34 50.34 0 0 1 9.86 3.23c.46.21 8.18 5 7.37 5.2-5.51 1.12-16.59-2.39-22.41-2.94a157.35 157.35 0 0 0-25-.69Zm43.17 48.13c-2.3-.14-16.08.36-17.2-3-1.7-5.08 18-2.13 20.5-1.86 9.53 1 18.69 3.5 27 8.45a41.57 41.57 0 0 1 11.2 9.42c.44.54 5.06 9.07 4.4 8.79-3.71-1.56-7.25-6.36-10.9-8.57a108.54 108.54 0 0 0-12.42-6.38 94.25 94.25 0 0 0-22.58-6.85ZM691 395.55c-1.08-.4-14.08-4.83-12.09-8.11 2.14-3.54 16.54 4.25 19.66 5.7 6.65 3.1 13.16 7.06 18.15 12.53a27.52 27.52 0 0 1 5.4 8c.14.35 1.62 9.18.52 8.17-2.43-2.23-3.69-6.31-6.34-8.8a97 97 0 0 0-7.77-6.25A132.46 132.46 0 0 0 691 395.55ZM413 545.2c2.46-8 4.16-15.87 6.23-23.93.9-3.5 4.26-9.63 3.88-13.13-.45-4.09-4.76-4.26-8.64-7.34-24.63 38.42-22.37 89-8 130.88 1.5 4.37 10.44 25.7 15.6 14.24 3.46-7.67-8.77-20.58-11.59-27.78-9.4-23.93-4.81-49.06 2.52-72.94Zm49.39-136.3c-2.81-6.8-9.51-10-16.59-9.27-1.39.16-13.52 2.9-13 4.87 0 .12 3.71 5.43 4 5.75 4 4.76 8.39 5.27 8.92 12.56.67 9.29-3.11 22-5.91 30.77 7.17 2.22 7.73 1.3 9.56-5.83 1.13-4.39 1.82-7.56 4.07-11.65 3.81-6.89 12.44-18.75 8.95-27.2Zm245.25 119.85c-1.37-2.58-5.19-8.84-2.25-11.37s7.77 10.81 8.53 12.65c2.72 6.66 7.72 25.83.46 31.76 1.49-1.22-5.55-29.43-6.74-33.04ZM670 537.52c-.85-2.29-5.37-12.39-2.35-14.82 3.39-2.73 8.68 17.15 9.26 19 1 3.13 7.17 40.83.15 39.9-.96-.1-6.26-40.91-7.06-44.08Zm-22.17-123.78c-1-.63-12-7.38-9.14-10.16 2.68-2.58 14 7.06 16.7 8.95 4.32 3 27 19.13 24.42 26.26-.19.51-29.81-23.22-31.98-25.05Zm4.03-55.82c-2.92-.22-10.22-.19-11-3.94s13.54-1 15.47-.67a40.49 40.49 0 0 1 17 6.78c1.3.94 10 12.31 8.6 12.13-4.16-.56-10.68-6.46-14.85-8.48a81.25 81.25 0 0 0-15.22-5.82Zm-95.94-78.56c-1.83.34-14.8 3.67-15.1-1-.28-4.53 16-4.88 18.59-5.2a70.47 70.47 0 0 1 24.14 1c1.51.35 17 7.21 15.94 7.61-4.57 1.78-17.21-1.13-22.36-1.56a163.35 163.35 0 0 0-21.21-.85Zm29.67 45.34c-2 .16-13.53 3-14.3-.7-1.08-5.18 18.59-4.46 20.4-4.28 3.44.34 37.57 12.38 33.88 18-.45.72-36.16-12.66-39.98-13.02Zm5.41 41.66c-1.94-.49-11.16-3.21-10.13-6.76 1.18-4.08 11.35 1.66 13.49 2.32 6.51 2 12.9 3.5 18.76 7.23 1.57 1 10.7 11.56 9.83 11.54-3.37-.08-11.3-5.57-14.51-7Q599.8 370 591 366.36Z" class="cls-3"/><path d="M397.43 661.51c.91-4.39 7.43-30.31 15.34-29 5.6 1-1.89 13.25-3 15.85a94.18 94.18 0 0 0-6.16 23.46 164.92 164.92 0 0 0 .12 48.6 186.38 186.38 0 0 0 4.42 19.92c.82 3 6.1 13.85 4.75 17-.06.14-10.28-15.07-11.31-17.09a85.28 85.28 0 0 1-7.83-22.34c-3.65-18.72-1.39-38.14 3.67-56.4Zm44.3 99.26c-4.69-25.3 7.59-52.3 26.74-68.63 23.23-19.81 55.25-23.43 84.35-17.87 53.69 10.24 100.6 50.82 97.23 109.26-.31.1-11.84-30.86-13-33.22-6.28-12.33-14.87-23.3-24.42-33.26-18.51-19.29-43.84-32.58-70.57-35.34-26.43-2.73-53.47 4.53-70.07 26.18-9.28 12.12-12 25.64-16.37 39.87-1.42 4.55-11.29 29.43-13.89 13.01Zm242.21-50.33c-1.92-15.2-5.36-30.11-9.22-44.92-1.73-6.64-4.56-31.64-15.09-30-11.48 1.82.82 19.69 3.53 24.33 6.55 11.18 10.5 24.36 13.27 36.94 2.86 13 3.36 26.33 3.55 39.61.08 5.64-3.81 25.12 2 29 8.32 5.6 5.64-12.27 5.31-15.79-1.21-12.99-1.7-26.13-3.35-39.17Z" class="cls-3"/><path d="M403.78 795.58c7.19-3.54 14.64-8.27 18-15.89 2.38-5.36 4.66-18.47-1.25-22.8-7.17-5.26-13.39 3.51-10.43 10 2.82 6.22 7.46 7.54 1.67 15.63-4.33 6.05-12 8.38-18.68 10.59-4.92 1.64-17.47 3-19.51 8-3.42 8.48 5.92 6 9.93 3.73 6.55-3.59 13.54-6.01 20.27-9.26Zm-18 15.99c4.38-2.37 13 .41 15.46-2.15 1.55-1.61 1.23-8.46-1.05-9.55-2.83-1.36-3.54 1.29-5.9 2.36-4.15 1.88-19.34 7.16-20 12.58-.52 4.17 4.41 4.45 6.62 3.07 1.39-.88 2.09-4.83 4.87-6.31Z" class="cls-3"/><path d="M396.1 819.21c3.76-2.18 13.22-2 13.27-6.77.11-9.78-6.23-3.63-8.41-1.54-2.79 2.68-14.57 7.3-14.92 10.57-.96 8.99 8.77-1.47 10.06-2.26Zm15.5-6.09c.9-2 3.21-4.54 5.68-3.27 3.86 2-.1 5-1.17 7.26-1.31 2.8-4.53 14.27-9 14.14-5.39-.15 3.16-16.67 4.49-18.13Zm16.25-4.37c2.35-6.65 8.76-5.94 5.18 2.54-1 2.36-9.33 18.19-12.48 16.52-5.55-2.94 5.45-16.72 7.3-19.06Zm218.2-18.68c-.68-2.54-3.73-10.47.83-11.38 3.9-.77 5.51 12.78 5.61 15.38.28 7.26-7.69 25.49-17.73 24.09-.09 0 6.39-11.89 7.15-13.37 2.47-4.74 4.6-9.25 4.14-14.72Zm10.17 24.39c.51-.36-4.13-6.86-7.55-3.54-.89.85-.27 4.86-1.15 6.16-1.23 1.84-6.7 2.94-7.22 4.54-.79 2.42 3.25 5.65 5.38 5-.11 0 2.77-3.94 3.15-4.44a39.41 39.41 0 0 1 7.39-7.72Zm15.78-2.71c-2.46-.94-7.89-.3-6.76-4.17 1-3.31 7.4-1.79 9.39-.94 5.14 2.2 17.37 21.93 9.23 25.55-.2.07-11.99-19.01-11.86-20.44Zm12.65-8.75c-1.12-1.23-7.82 4.39-2.43 8.24 2.11 1.51 6.37 1.13 8.8 2.56 3.18 1.88 4.31 6.84 6.76 8.37 1.8 1.12 6.43 3 6.82-2 .19-2.47-3.36-3.35-4.72-4.55-4.88-4.35-10.7-7.82-15.23-12.62Zm-202.2-547.76c-1.27 1.58-8.21 12-11.59 9s9.89-15.79 11.42-17.36c2.39-2.44 30.67-24.27 33.61-18.74 1.26 2.41-30.84 24.72-33.44 27.1Zm59.46 58.05c-1.94.11-8.64.22-9.2-2.94-.85-4.81 8.69-2.79 11-2.76 5.68.07 11.19.15 16.74 1.68.35.1 11.37 4 9.93 5.33-5.1 4.59-22.52-.36-28.47-1.31Zm9.93 30.51c-1.81.15-7.41.15-7.64-2.9-.32-4.19 6.64-2.34 9-2.37 3.45 0 22.39-1 22 5.89-.1 2.03-21.38-.36-23.36-.62Zm49.85 58.96c-1.7-.36-6.62-1.63-6.49-4.23.22-4.57 8.81-.61 10.88.12 1.66.58 20.24 10.2 16.63 13.39-2.94 2.59-18.18-7.84-21.02-9.28Zm149.05 115.05c-1.76-.78-5.43-3.1-4.28-5.69 1.67-3.74 6 .66 8 1.74 2.71 1.47 17.33 9.6 13.08 14.77-1.4 1.66-15.28-9.63-16.8-10.82ZM709.28 373c-1.42-.21-10.7-1.75-8.53-5.55 1.49-2.63 12.59.94 14.85 1.51a44.25 44.25 0 0 1 13.17 5.51c.26.17 9.15 7.56 7.35 8-6.44 1.67-20.71-7.3-26.84-9.47ZM607 292c-2.35 1-9.66 5.23-9.28.12.23-3.12 8.62-5.47 10.83-6 3.55-.87 27.4 2.79 26.05 4.34-4.44 5.05-21.52.54-27.6 1.54Zm-51.85-42.44c-2.17.42-12.27 2.34-13.24-1.39-1.26-4.83 12.14-4.19 14.49-4.61a177.52 177.52 0 0 1 21.42-2.91c1.55-.08 16.7 1.15 16.42 1.52-3 4-16.73 5.4-21.26 6-5.89.83-11.89 1.12-17.83 1.39Zm187.34 296.81c-1.66-1.81-7.31-8.4-3.09-10.42 2.53-1.22 7.34 7.38 8.24 8.49 4.24 5.22 16.74 19 13.32 26.77-.06.15-16.79-22.21-18.47-24.84Zm-10.38 67.35c-.62-1-7.33-12-3.14-13 3.2-.71 8.81 12.12 10.44 14.93 3.23 5.55 6 11.49 6.75 18 .16 1.43-3 17.56-3.74 16.23-2.2-4-1.79-13.92-3.26-18.82a132.86 132.86 0 0 0-7.05-17.34Zm-30.32 20.6c-1.09-1.27-6-7.6-1.42-8.35 2.83-.47 7.16 7.16 8.29 9.16.8 1.4 7.21 20.3 2.61 20.14-3.69-.12-8.11-18.01-9.48-20.95Zm.41 39.15c-.56-.92-7.17-12.72-2.85-13.4 3.23-.51 8.53 12.76 10.16 15.64 3.3 5.84 6.37 11.95 8 18.5.44 1.77-.28 17-1 16.07-2.81-3.85-4.61-13.92-6.61-18.73-2.48-6.06-5.07-12.07-7.7-18.08Zm-77.67-119.09c-1-1.8-4.36-8.48-.91-9.66s6.24 8.53 7.11 10.61c2.23 5.34 4.26 10.88 4 16.81 0 1-1.49 9.8-2.65 8.8-4.64-4.06-5.74-20.57-7.55-26.56Zm20.71 12.4c-1.26-2-3.55-6.59-.94-8.63 3.1-2.43 5.33 5.82 6.21 7.35 1.93 3.4 13.25 18.32 8.32 22.29-2.21 1.77-12.83-19.05-13.59-21.01Zm-3.56 70.47c-3.52-6.54-.2-12.07 4-3.58 1.95 3.92 11.07 24.34 3.22 26.35-1.41.36-6.69-20.83-7.22-22.77ZM668.3 614c-1.37-1.34-5.24-6.83-.78-7.69 2.23-.43 6 5.65 6.89 7 1.9 3 7.78 17.7.84 18.71-.84.1-6.02-16.28-6.95-18.02Zm31.38-20.5c-2.31-1.66-4.59-5.27-1-7.07 1.49-.75 6 4.35 6.7 5.13 2.2 2.36 10.14 13.35 4.43 15.9-1.57.7-9.06-12.46-10.13-13.96Zm54.79 12.28c-2.07-2.11-7.63-6.86-5.84-10.22 1.87-3.52 11 8.24 12.26 9.76a39.83 39.83 0 0 1 8.17 16.61c.34 1.66-1.15 15.93-2 14.89-2.14-2.71-3.21-11.54-4.57-15a79.34 79.34 0 0 0-8.02-16.04Zm-18.76 72.67c-1.35-2.78-1.54-7.58 2.86-6.82 1.33.23 2.83 6.58 3.16 7.54 1 3 5.59 16.42-.66 17-1.96.21-5.07-15.95-5.36-17.72Zm-63.96-391.07c-2.07.09-9.25.32-9-3.22.25-3.81 10.47-2 12.67-1.87 5.75.37 11.7 1.5 16.68 4.6.87.54 7.7 6.2 6.24 6.7-2.35.8-11.2-2.46-13.72-3.1-4.31-1.1-8.5-2.35-12.87-3.11Zm-63.44-49.44c-6.32.94-8.52-3.28-2.43-5.16 2.17-.67 22.54-2.39 22.28 1.55-.33 4.96-16.95 3.93-19.85 3.61Zm-89.13-28c-1.4 1.18-8.83 7.68-11.55 5.46-4.13-3.34 9.11-10.84 11.13-12.31a63.42 63.42 0 0 1 16.85-9.28c.87-.3 18.13-2.63 17-1.11-2.3 3.14-13.4 6.88-17.16 8.72-5.45 2.71-10.96 5.4-16.27 8.52Zm-37.65 78.16c-1.91 2.17-6.74 6.89-9.65 3.88-2.44-2.5 6.17-8.57 7.83-10.29 3.55-3.68 7.19-7.32 11.75-9.79.85-.47 13.73-4.32 12.79-2-1.24 3-10 8.34-12.57 10.41-3.33 2.69-6.76 5.18-10.15 7.79Zm-36.6-18.34c-.25 2-3.16 8.21-6.28 4.63-1.47-1.69 1.08-8.59 1.76-10.53.56-1.61 6.83-15.6 10.47-12.57 3.12 2.57-4.67 15.88-5.95 18.47Zm74.76 67.75c-1.77 1-8.67 2.38-7.44-2.35.55-2.08 6.4-3.69 8-4.24 3.15-1.1 18.66-4.09 17.57 3.22-.24 1.51-16.26 2.98-18.13 3.37Zm46.93 41.2c-2 0-4.23-1-4.37-3.24-.25-4 4.16-2 6.28-1.76 2.77.32 13.71 2 13.29 6.94-.29 3.45-13.71-1.32-15.2-1.94Zm114.15 42.1c-1.88-.37-10.41-2.06-7.95-5.47 2.33-3.24 13.86 1.82 16.4 3.48a22.69 22.69 0 0 1 9 12.07c.32 1 1.47 10.07.13 9.45-2.42-1.12-6.38-9.35-8.22-11.62-2.64-3.3-5.41-6.13-9.36-7.91Zm-38.57-36.63c-2.55-.43-4-3.87-1.62-5.54 1.46-1 8 1.7 9.41 2.68 9.84 7-1.99 6.86-7.79 2.86Zm23.65-46.66c-2-.08-4.53-.91-4.84-3.21-.58-4.21 4.89-2 6.91-1.72 2.85.42 15.16 3.28 14.23 8.53-.55 3.09-14.76-2.95-16.3-3.6Zm62.42 236.96c-4.59-3.07-1-6.05 2.48-4.81 3.18 1.13 7.52 7.39 7.69 10.55.56 9.94-8.17-2.53-10.17-5.74Zm-35.84 132.99c-1.13-2.6-4.36-10.79.19-11.35 3-.37 5.12 10.55 6 12.84 2.07 5.35 4.06 10.78 4.76 16.52.19 1.54-1.82 15.33-2.68 14-2.31-3.49-3.45-13.36-4.59-17.58-1.28-4.78-2.45-9.61-3.68-14.43Zm-10.78 74c-.62-2.71-1.22-17.9 4-16.83 3.23.67 1.31 8.67 1.33 10.38.08 6.19 1.74 9 6.36 13.07 3.6 3.2 7.38 5.72 10.59 9.43s5.73 8 6.1 13c.09 1.32-2.6 11.29-3 10.55-2.44-4.47-1-9.84-4.51-14.55a65.89 65.89 0 0 0-9.12-9.25c-5.12-4.53-10.62-8.51-11.75-15.8Z" class="cls-3"/><path d="M444.62 781.72c-.9-3-4.85-12.91 2-10.26 3.65 1.41 4.75 13.64 4.52 17a23.29 23.29 0 0 1-8.33 15.95c-.63.5-10.45 5.68-10.13 3.64.61-3.85 6.89-9 8.83-13 2.12-4.21 3.49-8.55 3.11-13.33Zm-59.1-407.14c-2.93 0-23.45-.88-13.52-6 4.11-2.11 15.67.24 20.43.26 4.26 0 8.48.17 12.73.37s16.36-1.52 17.93 1.89c3.81 8.25-13.17 5.85-16.44 7.52 3.18-2.33 7.94-4.51 11.86-7 1.45 1.35 1.65 2.05 2.54 3.95-11.18 2.91-24.22.16-35.53-.99Zm53.62 52.82c-2.91 2.81-4.09 7.48-7.32 9.82-3.05 2.2-7.49 1.85-11 2.78-9.89 2.62-18.5 9.14-24.54 17.3-12.75 17.24-3.91 31.69 13.84 40.95 20.41 10.64 43.46 13.34 66.07 11.82 9.18-.61 18.19-1.69 27-4.64 11.29-3.81 20.74-11.52 31.75-16.11 9.12-3.8 20.87-9 30.9-9.41 8.8-.36 1.89 3.11-3.06 5.41-15.53 7.23-31.1 12.44-46.25 20.79-15.86 8.74-37 12.49-55 14.58-20.43 2.38-42.46-1.85-59.92-12.92-15.95-10.12-30.3-28.47-19.35-47.25 11.06-18.98 35.12-32.65 56.88-33.12Z" class="cls-3"/><path d="M661.26 444.17c-1.94-2.12-23.41-22.49-25.78-20.93.3-.2 4.08 15.26 4.48 17.08 1.91 8.6 7.72 12 12.46 18.74 8.05 11.5 9 30.83 3.41 43.25-16 35.9-62.27 25.11-91.31 15.2-11.94-4.08-30.52-15.51-43.64-13.37-3.64.6-7.69 2.59-4.66 6.86s17.59 3.86 22.24 4.93c32.93 7.62 67.48 29.91 101.95 15.16 31.59-13.52 40.23-59.93 20.85-86.92Zm-198.68 39.1c-2.54.07-30.89-5-22.52-10 2.37-1.39 7.19 1 9.56 1.5a64 64 0 0 0 20.25.94 230.13 230.13 0 0 0 38.92-7.55c1.64-.45 26.47-6.63 26.47-6.66-.33 2.91-14 9.3-15.83 10.3a82.21 82.21 0 0 1-19.06 7.69 116.88 116.88 0 0 1-37.79 3.78Z" class="cls-3"/><path d="M599.66 477.38c-1.94.48-4.25.36-5.4-1.51-2.37-3.87 4-3.52 6-3.8 2.42-.35 16.5-.62 15.59 5.17-.41 2.68-14.34.36-16.19.14Z" class="cls-3"/><path d="M543.53 450.72c-6.48 1.87-6.49 7.67.25 8.38 8.35.89 17.61-6.65 25.72-8.18 7.56-1.42 16.21-.49 22.81 3.74a24 24 0 0 1 8.41 9.48c1.15 2.26 1.71 7.48 3.93 8.9 6.36 4.09 6-5.12 4.28-9.19-2.77-6.68-10-11.27-16.36-14.14-14.87-6.71-33.91-3.03-49.04 1.01Zm-83.19 13.72c10.05 4.62 13.4 12.69-.69 5.43a136.61 136.61 0 0 0-18-7.82c-3.14-1.07-7-2.51-10.31-1.77-1.66.37-4 3.15-5.51 3.11-1.48.11 3.16-5.93 3.57-6.25 2.95-2.28 6.89-2.52 10.44-2.1 7.25.86 14.44 5.54 20.5 9.4Z" class="cls-3"/><path d="M435.3 468.93c5.3 1.87 7.05 6.19 1.63 6.73-3 .3-9.81-4.43-13.35-5.79-2.21-.84-5-1.1-5.62-3.11-.81-2.67 5-8.8 7.42-6a8.21 8.21 0 0 0-1.12 2.82c1 1.53 9.32 4.19 11.04 5.35Zm316.25-11.2c-2.28-1.64-9.68-6.9-4.49-8.76 3.05-1.09 11.72 8.16 13.25 9.95a33.46 33.46 0 0 1 7 13.24c.26 1.07 1.1 10.35-.16 9.67-2.42-1.29-6.36-10.28-7.84-12.75a72.52 72.52 0 0 0-7.76-11.35Zm-33.41 9.98c-1.46-1.35-2.75-3.71-1.31-5.55 2.48-3.18 4.65 1.49 6.07 3.09 1.82 2.06 9.61 11.77 5.12 15-2.44 1.75-9.47-11.74-9.88-12.54ZM690 485.43c-1.26-1.68-5.09-7.1-2.13-8.86 3.14-1.86 6.3 5.63 7.39 7.49 2.52 4.3 4.8 8.61 5 13.75.06 1.81-1.15 12.28-5.1 11.65.99.16-4.33-22.12-5.16-24.03Zm30.32-47.67c-2.53-1.3-5.29-4.53-2-6.84 1.37-1 6.57 3.44 7.39 4.1 2.37 1.94 12 13 5.58 15.47-1.17.44-9.74-11.49-10.97-12.73Zm23.13-17.96c-3.11-3.21-.71-6.66 2.93-5.25 2 .76 6.79 8.88 7.1 10.92 1.75 11.53-8.13-1.55-10.03-5.67ZM525.38 300.54c-3.63-8.12-11.46-12.19-20.08-12.54-5.61-.22-18.76.06-22.19 5.57-4.5 7.22 4.45 13.38 10.95 9.39 5.94-3.64 8.21-9.24 16.86-7.51 7.81 1.55 11.06 8.79 9.65 16.18-1.19 6.25-10.18 10.71-9.08 16.85 1.57 8.81 8.61 1.23 10.88-2.57 4.45-7.44 6.63-17.17 3.01-25.37ZM357 364.18c-2.35-6.28-8.83-14.48-15.49-16.57-8.41-2.64-11.73 6.43-9.64 13.62 2.84 9.89 27.04 18.7 25.13 2.95Z" class="cls-3"/></svg>
