<?xml version="1.0" standalone="no"?>
<!DOCTYPE svg PUBLIC "-//W3C//DTD SVG 20010904//EN"
 "http://www.w3.org/TR/2001/REC-SVG-20010904/DTD/svg10.dtd">
<svg version="1.0" xmlns="http://www.w3.org/2000/svg"
 width="1024.000000pt" height="1024.000000pt" viewBox="0 0 1024.000000 1024.000000"
 preserveAspectRatio="xMidYMid meet">
<metadata>
Created by potrace 1.14, written by Peter Selinger 2001-2017
</metadata>
<g transform="translate(0.000000,1024.000000) scale(0.100000,-0.100000)"
fill="#000000" stroke="none">
<path d="M5373 8310 c-52 -11 -88 -29 -180 -91 l-72 -49 -11 36 c-12 36 -13
36 -54 30 -66 -11 -274 -83 -343 -120 l-63 -34 20 33 c39 63 19 61 -86 -10
-138 -93 -315 -297 -362 -416 -14 -36 -14 -41 0 -52 14 -11 12 -24 -21 -124
-32 -98 -40 -115 -71 -135 -23 -16 -54 -58 -94 -128 -40 -69 -86 -132 -136
-184 -80 -85 -242 -212 -321 -252 -27 -13 -58 -37 -70 -54 -18 -23 -26 -27
-41 -19 -10 5 -18 15 -18 22 0 27 -40 57 -75 57 -74 0 -124 -88 -106 -187 16
-83 71 -132 183 -159 58 -14 72 -15 109 -3 51 17 60 35 24 49 -22 9 -24 13
-15 31 14 25 6 63 -22 101 -11 16 -19 31 -17 32 2 2 22 13 45 24 62 31 257
198 459 390 191 183 215 215 194 270 -10 25 -7 30 43 74 l53 48 6 -40 c7 -55
20 -65 50 -42 13 11 49 33 80 51 l56 31 -5 -51 -5 -51 49 28 c27 15 66 38 86
51 l37 22 -15 -34 c-29 -70 -18 -71 91 -5 46 28 89 50 96 50 8 0 -21 -34 -63
-74 -88 -84 -101 -116 -45 -116 22 0 41 8 53 21 15 16 133 108 249 193 7 5 20
6 30 3 15 -6 13 -12 -15 -43 -17 -20 -41 -55 -52 -79 -19 -40 -24 -43 -67 -47
-94 -9 -145 -59 -121 -118 13 -32 59 -55 92 -47 13 4 48 24 77 47 62 45 85 49
141 20 51 -26 70 -55 70 -106 0 -34 -8 -52 -45 -100 -44 -57 -60 -114 -35
-129 5 -3 7 -19 3 -35 -7 -39 11 -46 85 -32 31 6 81 14 111 17 41 6 55 12 58
26 6 20 20 24 39 11 6 -4 15 -27 19 -52 6 -34 19 -56 52 -92 25 -25 69 -86 99
-134 l53 -87 70 -22 c80 -26 156 -67 170 -94 6 -10 7 -27 4 -39 -9 -37 5 -69
34 -77 14 -3 36 -13 47 -21 18 -12 19 -14 3 -14 -14 0 -18 -7 -15 -27 2 -21
11 -31 33 -38 17 -6 61 -28 99 -49 38 -22 84 -45 102 -51 19 -6 44 -21 56 -32
13 -11 38 -28 55 -37 44 -22 57 -45 82 -150 26 -107 37 -128 97 -197 144 -167
150 -407 14 -579 -126 -160 -394 -186 -757 -76 -45 13 -141 50 -215 81 -73 31
-162 63 -198 71 -36 9 -66 17 -68 19 -2 1 90 42 203 90 113 48 215 95 227 105
34 27 14 43 -46 35 -116 -16 -270 -79 -513 -208 -92 -50 -168 -72 -299 -87
-461 -52 -914 126 -914 361 0 134 172 302 336 329 71 12 78 17 120 79 l35 54
-59 -6 c-83 -9 -206 -50 -282 -94 -97 -57 -213 -175 -251 -257 -27 -58 -31
-75 -27 -129 7 -118 89 -236 223 -322 33 -22 62 -40 64 -42 2 -1 -10 -40 -27
-85 -117 -305 -117 -693 -1 -1053 l29 -93 -20 -35 c-50 -84 -115 -336 -129
-500 -16 -181 13 -366 75 -489 14 -28 46 -82 72 -120 40 -61 44 -71 34 -94
-18 -39 -14 -73 14 -121 33 -57 27 -84 -31 -139 -42 -41 -105 -67 -247 -104
-65 -17 -104 -43 -112 -76 -9 -36 16 -57 59 -49 l30 6 -33 -21 c-53 -36 -57
-100 -6 -100 19 0 39 12 64 40 35 38 40 40 96 40 65 0 64 -2 -22 -50 -47 -25
-67 -57 -53 -83 11 -20 31 -14 79 24 19 15 55 32 78 39 24 6 50 14 58 17 12 4
11 -5 -6 -46 -11 -29 -20 -63 -20 -77 0 -29 24 -41 46 -23 23 19 96 176 92
197 -5 25 -37 27 -63 2 l-23 -22 -4 28 c-2 21 -9 30 -26 32 -13 2 -28 -1 -35
-6 -9 -8 -12 0 -13 30 0 25 -6 45 -16 52 -14 11 -8 17 47 44 133 65 188 144
189 268 1 86 -21 126 -73 134 -29 5 -34 11 -57 75 -108 306 -118 679 -25 948
27 78 28 79 56 51 13 -13 30 -24 38 -24 24 0 47 35 47 74 0 41 -11 67 -75 171
-63 102 -86 186 -92 330 -6 145 8 240 73 475 25 91 52 189 60 218 8 28 19 52
24 52 5 0 39 -8 77 -17 103 -25 316 -23 468 5 145 27 251 56 324 88 63 28 61
28 61 9 0 -27 49 -47 155 -61 79 -10 165 -33 333 -88 269 -89 320 -102 431
-115 77 -8 87 -12 119 -44 27 -28 35 -44 37 -78 1 -24 9 -69 18 -99 8 -30 21
-84 28 -118 6 -35 22 -78 34 -96 12 -17 27 -63 33 -102 28 -172 98 -346 170
-426 31 -34 37 -48 38 -87 1 -37 15 -74 71 -181 74 -140 118 -263 149 -410 14
-68 18 -138 19 -350 1 -204 4 -271 15 -290 9 -17 13 -52 11 -106 -3 -106 12
-137 119 -234 82 -73 119 -129 120 -178 l0 -23 -32 22 c-18 13 -66 49 -106 82
-71 56 -74 58 -93 41 -10 -9 -19 -28 -19 -42 l0 -25 -25 23 c-19 18 -37 24
-73 24 -44 1 -47 -1 -50 -26 -3 -22 2 -27 26 -33 24 -5 40 -23 83 -93 81 -134
74 -126 93 -107 24 24 20 75 -12 138 l-28 55 36 -5 c51 -8 67 -19 95 -63 36
-57 105 -69 105 -18 0 18 2 20 10 8 12 -20 21 -9 35 47 22 86 -15 160 -121
244 -93 74 -95 79 -96 291 -1 179 0 184 26 235 32 64 76 95 76 53 0 -23 20
-70 31 -70 4 0 13 32 19 71 10 57 16 72 33 78 15 6 25 4 33 -7 26 -36 104 95
130 220 8 39 22 85 31 102 19 38 81 116 92 116 5 0 14 -21 20 -47 15 -63 31
-103 41 -103 18 0 40 33 40 58 0 15 -5 44 -10 64 -8 28 -7 52 4 95 8 32 22
103 31 158 16 96 76 297 113 380 l19 40 23 -86 c36 -138 46 -143 61 -29 8 65
6 78 -14 130 -23 56 -23 58 -5 83 65 89 83 265 49 472 -12 72 -24 138 -27 148
-3 11 0 17 10 17 23 0 28 33 16 100 -18 97 -47 181 -81 235 -18 28 -38 65 -46
83 -13 31 -12 34 22 69 31 32 35 42 35 89 0 43 3 52 15 48 12 -5 15 4 15 47 0
53 -26 126 -55 159 -7 8 -21 53 -30 100 -9 47 -34 160 -55 252 l-39 167 -86
128 c-76 114 -83 128 -64 131 12 2 18 9 16 17 -3 7 5 17 19 24 49 22 39 47
-115 296 -33 54 -61 103 -61 107 0 4 7 8 15 8 22 0 19 12 -20 98 -109 235
-215 382 -315 435 -58 30 -67 64 -20 74 18 3 34 12 37 20 14 36 -134 143 -387
278 -80 43 -151 85 -157 94 -7 8 -13 36 -13 62 0 38 -5 51 -22 64 -28 19 -144
56 -267 85 l-92 22 41 44 c45 49 47 56 24 75 -13 11 -68 15 -219 19 -212 5
-238 11 -228 50 4 17 0 20 -26 20 -17 0 -31 5 -31 10 0 12 -96 11 -157 0z
m-1443 -6090 c-19 -11 -39 -19 -45 -19 -5 0 6 8 25 19 19 11 40 19 45 19 6 0
-6 -8 -25 -19z"/>
<path d="M2823 7575 c9 -80 207 -457 307 -583 48 -61 120 -112 120 -84 0 4
-33 51 -74 105 -40 54 -96 137 -122 183 -70 121 -135 231 -173 290 -18 29 -39
69 -47 90 l-15 39 4 -40z"/>
<path d="M2630 7368 c1 -46 115 -224 218 -343 109 -125 211 -205 265 -205 15
0 27 3 27 8 -1 4 -33 30 -72 57 -39 28 -92 70 -117 95 -58 56 -273 324 -295
368 -17 34 -26 40 -26 20z"/>
<path d="M4362 7040 c-52 -51 -51 -110 2 -152 27 -22 79 -23 97 -2 8 9 13 34
13 55 -2 43 -47 129 -69 129 -7 0 -27 -13 -43 -30z"/>
<path d="M2485 6920 c-3 -5 2 -10 12 -10 25 0 214 -64 381 -129 134 -52 206
-69 239 -57 17 7 17 8 -2 19 -11 6 -58 25 -105 43 -47 17 -130 50 -185 72 -55
23 -127 48 -160 57 -67 17 -171 20 -180 5z"/>
<path d="M3713 6558 c-13 -6 -23 -17 -23 -24 0 -29 32 -35 307 -60 40 -4 70
-11 67 -15 -3 -5 0 -9 7 -9 6 0 17 -7 23 -16 7 -8 32 -18 56 -20 81 -9 89 -14
175 -90 81 -72 94 -94 57 -94 -10 0 -28 -7 -40 -16 l-22 -15 22 -32 c12 -18
41 -51 65 -74 42 -42 43 -44 43 -110 -1 -40 -12 -111 -28 -172 l-27 -104 -50
-12 c-27 -7 -57 -22 -66 -33 -9 -11 -29 -22 -44 -24 -31 -3 -69 -46 -60 -68 5
-14 158 -90 179 -90 5 0 32 -11 60 -24 153 -74 433 -73 652 3 121 41 310 148
293 166 -4 3 -105 -19 -225 -49 -271 -68 -383 -88 -499 -89 -92 -1 -215 23
-245 49 -8 7 -37 22 -65 34 -62 27 -63 27 -39 45 40 30 117 12 284 -69 41 -20
87 -36 102 -36 31 0 33 3 18 31 -12 21 -205 139 -229 139 -11 0 -10 4 6 15 13
9 26 35 33 67 13 55 21 73 88 200 53 99 61 151 33 207 -15 28 -34 47 -58 59
-21 9 -53 35 -73 56 -62 69 -178 162 -217 175 -36 12 -38 15 -35 46 5 43 -2
45 -180 50 -79 1 -183 6 -233 9 -59 4 -98 2 -112 -6z"/>
<path d="M5630 6510 c-6 -4 -10 -17 -8 -30 2 -18 15 -26 63 -41 33 -10 77 -19
98 -19 30 0 37 4 37 20 0 11 -12 27 -26 37 -31 20 -147 43 -164 33z"/>
<path d="M5645 5779 c-93 -10 -214 -37 -243 -56 -30 -18 -26 -53 8 -71 35 -18
89 -8 184 35 149 66 275 55 361 -32 49 -48 76 -112 54 -126 -8 -5 -27 -9 -42
-9 -16 0 -30 -7 -34 -16 -11 -30 19 -43 125 -50 l102 -7 0 27 c0 21 -7 30 -29
39 -25 9 -29 17 -33 58 -6 57 -31 92 -102 140 -90 61 -207 84 -351 68z"/>
<path d="M6400 3925 c0 -30 57 -240 74 -273 11 -20 14 -21 31 -8 36 26 17 141
-42 259 -27 54 -63 67 -63 22z"/>
<path d="M5157 3519 c-347 -37 -609 -241 -719 -560 -29 -86 -32 -105 -32 -214
1 -163 21 -207 72 -152 32 34 69 123 113 269 90 297 210 433 460 520 92 32 97
33 264 33 145 -1 182 -4 253 -23 263 -71 503 -238 678 -472 80 -106 115 -171
175 -329 45 -116 48 -126 33 -143 -13 -14 -15 -27 -9 -60 14 -83 7 -115 -49
-224 -36 -71 -50 -107 -42 -110 21 -8 66 14 97 48 22 25 29 28 29 15 0 -30
-18 -54 -50 -67 -21 -9 -30 -19 -30 -36 0 -21 25 -44 47 -44 4 0 35 30 67 66
l60 67 -28 24 c-17 14 -35 21 -46 18 -16 -5 -15 0 7 56 18 45 24 73 20 108 -2
25 -10 102 -16 171 -22 229 -65 364 -164 512 -194 291 -547 488 -946 528 -114
11 -131 11 -244 -1z"/>
<path d="M4425 2488 c3 -24 9 -57 12 -75 3 -18 -2 -53 -10 -78 -19 -55 -81
-133 -109 -137 -14 -2 -41 -32 -75 -82 -41 -62 -53 -88 -53 -118 0 -31 4 -38
19 -38 25 0 71 56 107 130 25 49 37 61 81 83 108 54 151 195 97 325 -11 27
-18 32 -45 32 l-32 0 8 -42z"/>
</g>
</svg>
