<?xml version="1.0" standalone="no"?>
<!DOCTYPE svg PUBLIC "-//W3C//DTD SVG 20010904//EN"
 "http://www.w3.org/TR/2001/REC-SVG-20010904/DTD/svg10.dtd">
<svg version="1.0" xmlns="http://www.w3.org/2000/svg"
 width="400.000000pt" height="400.000000pt" viewBox="0 0 400.000000 400.000000"
 preserveAspectRatio="xMidYMid meet">
<metadata>
Created by potrace 1.14, written by Peter Selinger 2001-2017
</metadata>
<g transform="translate(0.000000,400.000000) scale(0.100000,-0.100000)"
fill="#000000" stroke="none">
<path d="M2084 3130 c-18 -4 -46 -17 -64 -30 -21 -15 -34 -19 -39 -12 -11 18
-87 0 -155 -36 -5 -3 -6 0 -2 6 4 7 -3 11 -23 9 -16 -1 -27 -5 -25 -9 2 -4
-11 -18 -30 -33 -44 -33 -110 -129 -103 -149 9 -22 -11 -84 -32 -98 -10 -7
-30 -34 -45 -61 -31 -52 -112 -128 -163 -152 -18 -9 -33 -21 -33 -27 0 -6 -8
-4 -18 5 -37 33 -72 14 -72 -39 0 -43 38 -74 92 -74 33 0 38 3 34 18 -15 50
-17 72 -8 72 13 0 75 52 176 147 56 53 79 81 79 98 0 13 8 32 18 41 18 16 19
16 19 1 0 -21 3 -21 40 -2 27 14 30 14 30 0 0 -19 5 -19 35 1 23 15 25 15 25
-1 0 -15 4 -15 38 5 l37 22 -32 -34 c-40 -41 -45 -65 -10 -47 12 7 43 29 69
51 25 21 49 35 51 31 8 -13 -36 -57 -68 -68 -33 -11 -46 -48 -21 -58 17 -7 56
2 56 13 0 17 34 20 56 5 29 -19 30 -37 4 -73 -12 -16 -19 -38 -17 -52 4 -23 8
-25 48 -22 24 2 48 7 53 12 17 17 29 11 23 -11 -4 -15 0 -23 12 -26 18 -4 58
-70 53 -86 -1 -5 1 -6 5 -4 5 3 22 -1 38 -8 l30 -14 -32 5 c-17 2 -34 0 -38
-5 -8 -13 27 -31 60 -31 21 0 26 4 21 16 -5 14 -4 15 9 4 8 -7 15 -21 15 -32
0 -10 7 -21 15 -24 9 -4 14 -13 13 -22 -2 -11 20 -27 70 -51 68 -34 73 -39 84
-79 6 -23 23 -60 38 -81 61 -83 60 -171 -1 -232 -50 -50 -118 -60 -228 -34
-42 10 -80 21 -86 25 -5 4 -38 17 -73 30 -34 12 -61 24 -60 25 2 2 38 18 81
35 42 18 77 37 77 43 0 20 -87 -4 -172 -48 -154 -79 -317 -81 -448 -5 -49 29
-67 62 -56 106 10 37 67 90 107 98 51 10 93 56 52 56 -44 0 -119 -38 -164 -82
-50 -50 -62 -82 -48 -133 9 -30 78 -105 97 -105 5 0 0 -26 -11 -57 -30 -89
-33 -200 -8 -319 l21 -101 -22 -59 c-25 -70 -35 -219 -19 -280 6 -23 22 -58
36 -78 17 -25 23 -45 19 -60 -3 -13 -1 -27 5 -30 17 -11 13 -41 -6 -59 -10 -8
-43 -23 -75 -32 -54 -15 -79 -37 -57 -51 5 -3 7 -14 4 -24 -7 -24 15 -38 29
-18 6 8 22 17 36 21 23 6 23 5 -5 -17 -37 -29 -25 -47 14 -23 40 23 49 21 43
-9 -7 -37 17 -28 41 16 13 24 15 36 7 44 -8 8 -13 7 -19 -2 -7 -11 -10 -10
-15 3 -3 9 -10 13 -16 10 -5 -3 -10 3 -10 15 0 11 8 24 18 27 65 25 95 118 48
149 -47 30 -74 171 -57 299 15 107 18 115 44 112 32 -3 33 34 2 83 -48 77 -49
174 -4 333 19 63 26 76 40 72 56 -18 230 -1 303 29 30 12 35 12 40 0 3 -8 20
-14 42 -14 20 0 82 -15 138 -34 55 -19 124 -37 151 -41 28 -4 55 -12 61 -17 7
-5 15 -33 18 -62 4 -29 15 -69 25 -87 10 -19 21 -52 25 -74 9 -45 43 -117 61
-127 7 -5 11 -17 8 -27 -3 -11 6 -41 20 -68 53 -100 64 -169 77 -479 0 -6 20
-31 45 -56 42 -43 56 -68 37 -68 -4 0 -19 11 -34 25 -28 26 -48 32 -48 15 0
-5 -13 -7 -30 -3 -23 4 -30 2 -30 -11 0 -9 6 -16 13 -16 6 0 21 -17 32 -37 29
-53 54 -37 30 20 -10 24 11 22 32 -3 22 -25 49 -26 63 -1 18 34 11 52 -36 97
l-45 44 2 85 c1 57 6 88 15 96 11 9 15 7 20 -5 9 -25 22 -19 26 12 2 16 9 27
18 27 18 0 70 107 73 152 1 20 27 2 33 -24 9 -33 29 -23 27 13 -3 63 41 254
59 254 3 0 9 -14 13 -30 11 -52 26 -33 24 33 -1 34 3 82 9 107 7 29 8 67 2
105 -4 33 -7 78 -5 100 2 27 -5 55 -21 87 -25 50 -30 78 -14 78 6 0 10 11 10
25 0 14 5 25 10 25 16 0 11 40 -9 74 -18 30 -24 50 -36 126 -4 19 -14 43 -23
54 -9 11 -11 16 -4 12 20 -12 14 4 -23 54 -30 41 -33 49 -20 60 22 18 19 31
-20 96 -19 32 -35 67 -35 77 0 41 -98 192 -131 202 -23 7 -25 25 -4 25 8 0 15
4 15 8 0 14 -30 36 -120 87 -47 27 -86 50 -88 51 -2 1 -4 12 -5 24 -2 26 -15
33 -84 50 -49 11 -70 33 -41 42 6 2 8 10 4 16 -4 8 -36 12 -85 12 -65 0 -81 3
-96 20 -19 21 -23 22 -71 10z"/>
<path d="M1110 2846 c0 -15 80 -169 106 -203 14 -18 35 -38 47 -44 21 -12 21
-12 4 12 -20 27 -52 77 -114 176 -23 38 -43 64 -43 59z"/>
<path d="M1040 2761 c-1 -38 144 -201 179 -201 20 0 11 15 -18 33 -31 18 -56
46 -148 166 -10 12 -12 13 -13 2z"/>
<path d="M1688 2635 c-13 -29 0 -50 36 -57 24 -5 24 -6 11 55 -7 34 -32 35
-47 2z"/>
<path d="M990 2603 c0 -5 26 -17 58 -27 32 -9 71 -24 86 -31 35 -18 105 -31
91 -17 -14 14 -156 69 -199 78 -20 3 -36 2 -36 -3z"/>
<path d="M1445 2459 c-10 -16 -4 -18 66 -25 35 -4 74 -13 86 -20 12 -8 31 -14
41 -14 10 0 31 -13 46 -29 25 -26 26 -30 11 -38 -15 -9 -14 -13 10 -41 19 -23
25 -39 22 -64 -9 -69 -17 -83 -58 -101 -55 -24 -50 -43 19 -74 103 -46 225
-41 334 13 42 21 69 44 53 44 -4 0 -41 -9 -83 -19 -107 -27 -177 -36 -168 -23
4 6 -12 22 -38 37 -43 25 -43 26 -32 58 7 17 22 51 34 74 12 23 22 48 22 56 0
15 -135 137 -151 137 -6 0 -7 5 -4 10 9 14 -7 18 -112 24 -61 4 -94 3 -98 -5z
m310 -373 c44 -22 47 -25 23 -25 -30 -1 -108 29 -108 41 0 15 35 8 85 -16z"/>
<path d="M2128 2158 c-36 -10 -49 -30 -28 -43 6 -3 39 4 75 16 56 19 69 20 95
9 46 -19 78 -70 44 -70 -9 0 -14 -6 -12 -12 4 -12 88 -25 88 -15 0 3 -10 24
-22 46 -38 71 -132 98 -240 69z"/>
<path d="M2470 1464 c0 -27 34 -114 43 -111 25 9 -2 117 -29 117 -8 0 -14 -3
-14 -6z"/>
<path d="M1957 1299 c-58 -14 -131 -54 -164 -92 -66 -76 -103 -207 -70 -251
14 -19 15 -19 31 12 9 18 27 64 40 101 30 89 66 135 129 165 144 69 316 27
449 -109 110 -112 149 -240 102 -332 -21 -40 -21 -47 -1 -44 5 1 6 -3 2 -9
-12 -19 25 -23 45 -5 22 20 27 45 9 45 -7 0 -9 10 -5 25 12 49 -13 196 -45
262 -81 167 -329 278 -522 232z"/>
<path d="M1724 899 c6 -34 -14 -83 -39 -92 -17 -7 -55 -65 -55 -84 0 -24 26
-13 45 20 10 17 34 46 52 63 23 22 33 40 33 62 0 41 -9 62 -27 62 -12 0 -14
-7 -9 -31z"/>
</g>
</svg>
